<svg xmlns="http://www.w3.org/2000/svg"  viewBox="0 0 50 50" width="50px" height="50px"><path d="M 9 4 C 6.2504839 4 4 6.2504839 4 9 L 4 41 C 4 43.749516 6.2504839 46 9 46 L 41 46 C 43.749516 46 46 43.749516 46 41 L 46 9 C 46 6.2504839 43.749516 4 41 4 L 9 4 z M 9 6 L 41 6 C 42.668484 6 44 7.3315161 44 9 L 44 41 C 44 42.668484 42.668484 44 41 44 L 9 44 C 7.3315161 44 6 42.668484 6 41 L 6 9 C 6 7.3315161 7.3315161 6 9 6 z M 14.941406 16 L 14.941406 34 L 23.984375 34 C 26.754375 34 29 31.800891 29 29.087891 C 29.001 26.660891 27.202844 24.648 24.839844 24.25 C 26.761844 23.721 28.167969 22.131516 28.167969 20.228516 C 28.167969 17.893516 26.067609 16 23.474609 16 L 14.941406 16 z M 30.9375 16 L 30.9375 28 L 35 28 L 35 16 L 30.9375 16 z M 19.207031 19.947266 L 21.818359 19.947266 C 22.768359 20.045266 23.509766 20.814719 23.509766 21.761719 C 23.509766 22.774719 22.663141 23.595703 21.619141 23.595703 L 19.207031 23.595703 L 19.207031 19.947266 z M 19.207031 26.800781 L 22.207031 26.800781 C 23.345031 26.800781 24.269531 27.701641 24.269531 28.806641 C 24.269531 29.911641 23.346031 30.808594 22.207031 30.808594 L 19.207031 30.808594 L 19.207031 26.800781 z M 32.96875 30 A 2.0309999 2 0 0 0 30.9375 32 A 2.0309999 2 0 0 0 32.96875 34 A 2.0309999 2 0 0 0 35 32 A 2.0309999 2 0 0 0 32.96875 30 z"/></svg>